<?xml version="1.0" encoding="utf-8"?>
<!-- Generator: Adobe Illustrator 23.0.1, SVG Export Plug-In . SVG Version: 6.00 Build 0)  -->
<svg version="1.1" id="Layer_1" xmlns="http://www.w3.org/2000/svg" xmlns:xlink="http://www.w3.org/1999/xlink" x="0px" y="0px"
	 viewBox="0 0 612 792" style="enable-background:new 0 0 612 792;" xml:space="preserve">
<style type="text/css">
	.st0{fill:#39427D;}
	.st1{fill:#F9A91B;}
	.st2{fill:#FFFFFF;}
	.st3{fill:#F47E62;}
	.st4{fill:#F9A71B;}
	.st5{fill:#252C59;}
	.st6{fill:#DBE3EA;}
	.st7{fill:#B88A61;}
	.st8{fill:#00A74B;}
	.st9{fill:#F7931E;}
	.st10{fill:#FBAA1A;}
	.st11{fill:#EDA624;}
	.st12{fill:#006347;}
	.st13{fill:#F16051;}
	.st14{fill:#39427E;}
	.st15{fill:#E4E4E4;}
	.st16{fill:#9F7555;}
	.st17{fill:#CEA676;}
</style>
<g id="fM6SKd.tif">
	<g>
		<path class="st0" d="M13.5,414.6c0-136.8,0-273.7,0-410.5c0-1.1,0.2-1.3,1.3-1.3c147.4,0,294.8,0,442.2,0c0.3,0.5,0.1,1,0.1,1.6
			c0,26.9,0,53.9,0,80.8c0.1,1.1-0.7,1.2-1.6,1.3c-3.4,0.4-6.9,0.7-10.3,1c-15.7,1.5-30.7,5.3-45.2,11.6
			c-16.2,7-30.8,16.5-44.3,27.9c-6.9,5.8-13.3,12-19.4,18.4c-9.8,10.4-18.7,21.6-26.8,33.3c-7.3,10.5-14,21.4-20,32.6
			c-4.4,8.2-8.5,16.4-12.3,24.9c-0.9,2-1.2,2.1-3.1,0.9c-6.6-4.3-12.6-9.3-18.3-14.6c-9-8.4-16.9-17.9-25-27.1
			c-6.5-7.4-12.9-14.7-20.1-21.4c-3.6-3.4-7.4-6.5-11.4-9.4c-0.7-0.5-1.4-1.1-1.9-1.8c-0.1-0.1-0.1-0.2-0.1-0.4
			c-0.8-2.6-0.9-2.7-3.7-2.4c-1.3,0.2-2.5,0.4-3.8-0.1c-0.6-0.4-0.8-1-1-1.7c-0.7-2.2-1.2-4.6-1.8-6.8c-0.1-0.2-0.1-0.3-0.1-0.5
			c-0.2-1.4,0.3-1.9,1.6-1.4c1.1,0.4,2.1,0.7,3.1,1.1c2.1,0.8,4.4,1.1,6.7,1.2c1.7,0.1,3-0.7,3.8-2.4c0.9-1.9,1.2-4,1.3-6.1
			c0.3-6.8-0.8-13.4-3.1-19.7c-0.5-1.3-1.4-2.4-1.5-3.8c0-0.2,0.1-0.4,0.2-0.6c0.8-1.9,0.7-2.2-0.8-3.5c-1.4-1.2-2.9-2.2-4.5-3.1
			c-3.1-1.9-6.5-2.5-10.1-2c-0.2,0-0.4,0.1-0.7,0.1c-1.8,0.1-2.1-0.2-1.8-2c0.4-2.8,0.1-5.4-1.1-7.9c-0.7-1.5-1.6-2.9-2.5-4.2
			c-1.7-2.5-4-3.3-6.8-2.4c-1.3,0.4-2.5,0.4-3.9-0.1c-3-1.2-6.5,0.2-8.2,3c-0.4,0.8-1,1.3-1.7,1.8c-2.8,1.6-3.9,4.2-3.5,7.4
			c0.4,3.2,1.7,6,3.4,8.6c1.4,2.2,3.5,3.4,6.1,4.1c1.9,0.5,2.1,1,1.3,2.7c-1.9,4-2.4,8.1-2.1,12.4c0.1,2.1,0.3,4.1,0.9,6
			c0.9,3,2.8,4.9,5.8,5.7c2,0.5,4,1.2,6.1,0.7c0.5-0.1,1-0.1,1.3,0.4c0.7,1.7,0,3.4-0.1,5c-0.2,2.4-0.4,4.9-0.7,7.3
			c-0.1,0.4-0.1,0.8-0.3,1.1c-1.1,1.2-2.7,1-4,1c-4.4,0.1-8.8,0.1-13.2-0.1c-3.6-0.2-7.1,0.5-10.2,2.6c-3.7,2.5-4.9,6.1-3.6,10.5
			c1.1,3.8,3.3,7,5.8,10.1c1.6,2.1,3.5,3.6,6.1,4.3c1.7,0.5,1.9,1.1,1.2,2.6c-2.2,4.7-4.2,9.4-6,14.3c-3.4,9.4-5.9,19.1-7.5,29
			c-1,6-1.6,12.1-1.9,18.3c-0.3,5.3-0.3,10.6-0.1,15.9c0.4,10.7,1.5,21.3,3.5,31.9c0.4,1.8,0.4,3.7,1.3,5.4c0.5,1.1,0,2-0.5,2.9
			c-1.3,2-2.7,4-4.3,5.8c-2.7,3.2-5.4,6.4-8.4,9.3c-0.6,0.6-1.2,1.2-1.6,1.9c-0.9,1.4-0.6,2.7,1,3.3c2.9,1.2,5.7,1.2,8.5-0.2
			c2.5-1.3,4.7-3.1,6.8-4.9c1.1-1,2.3-1.9,3.5-2.7c2.6-1.7,4.7-1.7,7.3,0.1c0.6,0.4,1.1,0.9,1.7,1.3c0.4,0.3,0.9,0.6,1.4,0.7
			c0.7,0.2,1.5,0.3,2-0.3c0.4-0.5-0.3-1-0.6-1.5c-2.1-3-4.2-6.1-5.4-9.6c-0.8-2.4-0.5-4.8,0-7.2c0.1-0.4,0.3-0.7,0.7-1
			c1-0.3,1.5-1.1,1.8-2.1c1.8-5.3,3.3-10.7,4.6-16.1c0.2-0.8,0.3-1.6,1-2.1c0.7-0.4,1.4-0.6,2.2-0.3c0.7,0.4,0.7,1.1,0.7,1.7
			c-0.3,5.1-0.6,10.2-1,15.3c-0.5,6.2-0.8,12.5-1.5,18.7c-0.2,1.9-0.4,3.7-0.6,5.6c-0.2,2.2-1.1,4-2.5,5.6
			c-4.4,5.2-9,10.1-13.6,15.2c-1.3,1.5-2.8,2.9-4,4.4c-0.8,1-1.6,1.9-2.9,2.2c-0.7,0.2-1.5,0.1-2.2,0c-0.8-0.1-1.2-0.6-1.8-1.1
			c-1.5-1.4-3-2.7-4.5-4.1c-1.6-1.5-3.5-2.3-5.7-1.6c-2.8,0.9-4.3,3.4-3.9,6.3c0.1,0.6,0.3,1.2-0.4,1.6c-0.7,0.3-1.4,0.5-2.2,0.5
			c-3.5,0-7,0-10.4,0.3c-1.4,0.1-2.7,0.5-4.1,0.2c-0.8,0.2-1.3-0.4-1.9-0.8c-1.9-1.5-3.5-3.2-5.3-4.9c-3.3-3.1-6.6-6.1-9.8-9.2
			c-1.2-1.2-2.7-2-4.5-1.9c-2.3,0.1-4,1.1-4.9,3.1c-0.9,2.1-0.7,4.2,0.9,6c2.5,2.7,5.3,5.1,8,7.6c0.6,0.6,1.5,1,1.3,2.1
			c-0.5,0.6-1.3,0.6-2,0.7c-11.3,2.3-22.1,5.9-32.4,11.2c-7.9,4.1-15.1,9.1-21.6,15.2c-6,5.5-11.1,11.8-15.3,18.7
			c-2.2,3.6-4.1,7.4-5.6,11.3C14.5,413.7,14.4,414.5,13.5,414.6z"/>
		<path class="st1" d="M13.5,414.6c1.5-3.1,2.6-6.4,4.3-9.4c8.5-15.5,20.7-27.2,35.9-35.9c11.8-6.7,24.6-11,37.9-13.5
			c0.6-0.2,1,0.3,1.4,0.6c2.1,1.7,4.1,3.7,6.1,5.6c4.8,4.5,9.7,9,14.4,13.5c1.2,1.1,2.3,2.3,3.9,2.9c0.3,0.1,0.4,0.3,0.5,0.6
			c-0.6,1.4-1.7,2.4-2.7,3.4c-2.4,2.4-4.7,5.1-7.1,7.5c-1.3,1.3-1.3,1.4-0.1,2.9c0.3,0.5,0.7,0.9,0.6,1.5c-0.2,0.5-0.6,0.8-1,1.1
			c-3.3,2.6-6.6,5.3-9.9,7.9c-0.5,0.4-1.1,1-1.9,0.7c-1-1.4-2.1-1.3-3.6-0.8c-3.3,1.2-5.7,3.5-7.9,6.1c-0.7,0.8-0.1,1.3,0.3,1.8
			c1.8,2.2,3.7,4.4,5.5,6.5c8.1,9.7,16.3,19.4,24.4,29.1c1.1,1.3,1.2,1.3,2.7,0.4c2.4-1.5,2.8-3,1.2-5.3c-2.3-3.3-3.9-6.8-4.9-10.7
			c-1.5-5.9-3.3-11.6-4.9-17.4c-0.2-0.8-0.4-1.6-1-2.2c-0.4-0.5-0.4-1.1,0.2-1.5c3.2-1.9,6.2-4,9.7-5.5c0.7,0,1.1,0.6,1.5,1.1
			c4.3,5,8.5,10,12.8,15c3.1,3.7,6.3,7.4,9.4,11.1c1.2,1.4,1.3,1.4,2.5,0.1c4.1-4.5,8.3-9,12.4-13.6c4.7-5.2,9.4-10.4,14-15.7
			c5.7-6.6,11.4-13.2,16.9-19.9c4.7-5.8,9.4-11.6,13.8-17.6c0.4-0.5,0.7-1.7,1.8-0.8c0.9,3.4,1.4,7,2,10.4
			c2.4,13.2,4.8,26.4,7.2,39.5c1.6,9.1,3.3,18.2,4.9,27.2c0.4,2.1,0.6,2.2,2.7,2c5.5-0.7,11-1.2,16.5-1.8c6-0.7,12.1-1.3,18.1-2
			c0.7-0.1,1.4-0.2,2.1,0.2c0.4,0.3,0.6,0.6,0.8,1.1c0.7,2.2,1.5,4.5,2.1,6.7c0.1,0.5,0.2,1-0.2,1.4c-0.2,0,0.1,0.1-0.1,0.1
			c-2.2-0.2-2.7,1.3-3.3,3c-1,3-0.7,5.9-0.2,8.9c0.1,0.9,0.6,1.2,1.5,1.2c0.3,0,0.6,0,0.9,0c15,0,30,0,45.1,0c2.3,0,2.5-0.2,2.7-2.4
			c0.2-1.7-0.6-3-2.2-3.4c-1.6-0.4-3.2-0.5-4.7-0.7c-2.1-0.2-4-1-5.9-1.8c-6.1-2.8-12.3-5.4-18.4-8.2c-0.3-0.1-0.7-0.2-1-0.4
			c-0.7-0.3-1.2-0.2-1.5,0.5c-0.2,0.5-0.5,1-1.1,1.1c-0.4,0-0.6-0.2-0.7-0.5c-0.7-2.5-1.5-5-1.5-7.6c0.3-0.6,0.9-0.8,1.4-0.8
			c1.1,0,1.3-0.4,1.1-1.4c-1.1-4.8-2.1-9.5-3.1-14.3c-3.7-17.1-7.5-34.3-11.2-51.4c-2.9-13.5-5.9-27.1-8.8-40.6
			c-1.5-7.1-3.1-14.1-4.6-21.2c-0.1-0.6-0.3-1.2,0-1.8c0.5-1,1.3-1.8,2-2.7c8.7-10.5,14.9-22.2,18.8-35.3c1.3-4.3,2.5-8.5,4.1-12.7
			c0.5-1.2,0.4-1.4-0.9-1.5c-3.2-0.3-6.4-0.7-9.5-1.3c-5.9-1.1-11.5-2.9-17-5.3c-0.5-0.2-0.9-0.5-1.4-0.8c-0.5-0.3-0.7-0.7-0.8-1.2
			c-3.5-9.3-8.7-17.8-13.9-26.2c-5.6-9-11.3-17.9-16.1-27.3c-4.6-9-8.2-18.4-10.5-28.3c-0.1-0.6-0.5-1.2,0.1-1.7
			c8.7,5.9,16.2,13.1,23.1,20.8c8.1,9,16,18.2,24.2,27.2c8.8,9.8,18.4,18.8,29.5,26c0.4,0.2,0.7,0.5,1.2,0.7c2-4.5,4-8.9,6.1-13.2
			c10.7-21.9,23.3-42.6,38.5-61.7c15.1-19,32.2-36,52.4-49.5c18.2-12.2,37.9-20.6,59.5-24.6c6.7-1.2,13.5-1.8,20.2-2.5
			c1.4-0.1,2.8-0.3,4.2-0.4c0.3,0.5,0.2,1.1,0.2,1.7c0,49,0,98.1,0,147.1c0,0.9-0.7,1.1-1.3,1.3c-3,1.1-5.9,2.3-8.7,3.6
			c-10.4,4.8-19.8,11.2-28.3,18.9c-9.3,8.4-17,18.2-23,29.2c-4.3,7.7-7.5,15.9-9.8,24.4c-2,7.3-3.3,14.6-3.7,22.2
			c-0.9,14.3,0.7,28.2,5.1,41.8c4.4,13.7,11.1,26.1,20.1,37.2c9,11,19.6,19.9,32,26.9c5.2,2.9,10.6,5.4,16.2,7.5
			c0.7,0.3,1.6,0.5,1.6,1.5c0,17.6,0,35.1,0,52.6c0,0.5,0.1,1.1-0.1,1.6c-147.4,0-294.9,0-442.3,0c-1,0-1.2-0.2-1.2-1.2
			C13.5,473,13.5,443.8,13.5,414.6z"/>
		<path class="st2" d="M457,235.1c0-0.4,0-0.9,0-1.3c0-48.8,0-97.7,0-146.5c0-0.4,0-0.9,0-1.3c0-0.5,0-1.1,0-1.6
			c0-27.2,0-54.3,0-81.5c0.1,0.1,0.3-0.1,0.3,0.1c0,0.4,0,0.7,0,1.1c0,166.1,0,332.1,0,498.2c0,0.4,0.3,0.9-0.3,1.2
			c0-17.7,0-35.4,0-53.2c0-0.5,0-1.1,0-1.6c-0.4-0.6-0.6-1.2-0.5-1.9c0-0.4,0-0.9,0-1.3c0-69,0-138.1,0-207.1
			C456.4,237.3,456.2,236.1,457,235.1z"/>
		<path class="st3" d="M108.4,394.3c-0.5-0.6-0.9-1.3-1.4-1.8c-0.8-0.7-0.8-1.3-0.1-2.1c3.6-3.8,7.2-7.6,10.8-11.3
			c0.4-0.5,0.9-0.4,1.5-0.5c3.2-0.2,5.3-2.4,5.3-5.7c0-0.5-0.1-1,0-1.5c0.6-1.5,2-2.4,3-3.6c1.5-1.9,3.4-3.4,5-5.3
			c0.2-0.3,0.6-0.6,1-0.7c0.8-0.1,1.2,0.4,1.7,0.8c5.8,5.6,11.9,11.1,17.8,16.7c2,1.9,3.9,3.7,6,5.5c2.5,2.1,5.5,2.2,7.8,0.1
			c2.2-2.1,2.3-5.1,0.2-7.6c-1.4-1.6-3.1-3.1-4.7-4.5c-3.3-3-6.6-6.2-9.9-9.3c-3.1-2.9-6.2-5.7-9.2-8.7c-0.5-0.5-1.1-0.9-1.2-1.7
			c0-0.8,0.7-1,1-1.5c0.5-0.1,0.9-0.4,1.2-0.8c6.4-7.1,12.9-14.1,19.1-21.3c1.8-2.1,2-4.5,2.3-6.9c1.1-9.9,1.6-19.9,2.4-29.9
			c0.2-3.1,0.4-6.1,0.5-9.2c0-0.7,0.6-0.6,1.1-0.7c5.2-0.9,10.3-2,15.6-2.7c0.2,0,0.3-0.1,0.5-0.2c5.6-1.1,11.3-2,16.9-3
			c4.9-0.9,9.8-1.7,14.7-2.6c1-0.2,1.5-0.6,1.6-1.6c0.4-3.3,0.8-6.7,0.6-10.1c-0.2-2.4-0.7-4.7-0.3-7.1c1.2-1.1,2.9-0.9,4.3-1.3
			c0.7-0.2,1.5-0.4,2.3,0.1c0.5,0.5,0.5,1.1,0.5,1.7c-0.3,3-0.5,6-0.9,9c-0.4,3.9-0.8,7.9-1.2,11.8c-0.6,5-1.1,10.1-1.7,15.1
			c-0.8,6.2-1.6,12.4-2.5,18.6c-1.9,12.3-3.9,24.7-7.7,36.6c-1.9,6-5.2,11.3-8.9,16.3c-0.3,0.4-0.5,0.7-1,0.8
			c-1.9,2.5-3.7,5-5.6,7.4c-5.9,7.6-12,15-18.3,22.3c-8.1,9.5-16.4,18.7-24.7,28c-3.5,3.9-7.1,7.7-10.6,11.6c-0.5,0.5-0.7,0.5-1.1,0
			c-5.4-6.4-10.8-12.8-16.3-19.2c-2.6-3.1-5.3-6.2-8-9.3c-0.6-0.1-1-0.5-1.4-1c-2.3-2.7-4.6-5.5-7-8.2
			C108.8,395.3,108.4,394.9,108.4,394.3z"/>
		<path class="st4" d="M219.3,255.5c0.8,6,1,12,0,18c-0.1,0.8-0.5,1.1-1.2,1.2c-7.2,1.3-14.3,2.5-21.5,3.8c-3.3,0.6-6.6,1.2-9.9,1.7
			c-0.3,0.1-0.7,0.1-1.1,0.1c-0.8-0.1-1.3-0.8-1.7-1.4c-3.3-4.3-5.6-9.3-7.7-14.3c-1.5-3.5-2.7-7.1-3.8-10.7
			c-1.5,9.2-3.2,18.3-5.3,27.3c-0.2,0.9-0.2,1.9-1,2.5c-1.2,4.2-2.3,8.5-3.5,12.7c-0.6,2-1.3,4-1.9,6c-0.3,1.2-0.9,1.8-2.1,1.7
			c-0.7,0.6-1.5,0.9-2.4,1c-2.7,0.4-5.5,1-8.2,1.4c-0.6,0.1-1.2,0.2-1.8-0.3c-0.8,0.1-0.7-0.5-0.8-1c-1.8-8.5-3-17-3.8-25.7
			c-0.9-9.9-1.1-19.7-0.4-29.6c1.2-17.6,5-34.6,11.8-51c1.2-2.9,2.5-5.7,3.8-8.5c0.4-0.8,0.5-1.2-0.6-1.4c-2.1-0.4-4-1.4-5.4-3
			c-3.4-3.9-6.5-8-7.5-13.2c-0.9-4.4,0.7-7.8,4.6-10.1c3.3-1.9,6.8-2.4,10.5-2.3c4.8,0.1,9.7,0.5,14.5-0.1c0.6-0.1,1.2-0.2,1.8-0.3
			c0.7-0.6,1.5-0.8,2.3-0.8c0.5,0.1,1-0.1,1.5-0.2c1.3-0.2,2.6-0.3,3.9-0.5c0.8-0.1,1.5,0.1,1.8,0.9c2.7,5.1,5.2,10.4,7.7,15.7
			c3.9,8.2,7.6,16.5,11,24.9c6.5,15.8,12.3,31.8,15.5,48.6c0.3,1.7,0.6,3.4,0.8,5.1C219.6,254.5,219.7,255.1,219.3,255.5z"/>
		<path class="st5" d="M176.1,146.7c-3.3,1-6.4,0.1-9.4-1.2c-3-1.3-4-4.1-4.6-7.1c-1-5.1-0.8-10.1,0.8-15.1c0.3-0.9,0.8-1.8,1.2-2.7
			c0.3-0.6,0.4-1.1-0.4-1.1c-6.8-0.7-10.6-9-10.8-14.3c-0.2-3.1,1.4-5.8,4.2-7.1c0.5-0.2,0.8-0.5,1-1c1.7-3.6,6-5.2,9.7-3.4
			c0.7,0.4,1.4,0.4,2.1,0.1c3.4-1.4,6.3-0.5,8.3,2.6c1.6,2.5,3.2,4.9,3.6,7.9c0.3,1.9,0.1,3.9-0.3,5.8c1.2,0.2,2.3-0.2,3.5-0.2
			c4.9-0.3,9,1.8,12.7,4.7c0.3,0.2,0.5,0.5,0.8,0.7c2.2,1.7,2.3,2.3,0.7,4.6c-0.2,0.7-0.8,1-1.4,1.4c-1.8,1-3.6,1.7-5.5,2.3
			c-4,1.4-6.8,3.9-7.9,8.1c-0.3,1.3-0.9,1.6-2.2,1.2c-1.2-0.4-2.4-0.5-3.7-0.5c-1.6,0.1-2.8,1.1-3,2.7c-0.3,2.2,0.2,4.2,1.9,5.8
			c0.2,0.2,0.4,0.4,0.7,0.6c0.8,0.7,1.6,1.4,1,2.5C178.4,145.2,177.9,146.6,176.1,146.7z"/>
		<path class="st6" d="M219.3,255.5c-1.1-9-3.4-17.7-6-26.4c-5.3-17.1-12.2-33.6-19.8-49.8c-3-6.5-6.2-12.9-9.3-19.4
			c0.1-0.3,0.3-0.5,0.5-0.5c1.7-0.2,3.4-0.5,5,0.3c2.1,0,4.2,0,6.3-0.2c1-0.1,1.4,0.3,1.5,1.2c0.1,0.8,0.3,1.6,0.4,2.3
			c2.2,10.6,6.1,20.6,11,30.2c5.2,10.3,11.6,19.9,17.6,29.8c4.3,6.9,8.4,14,11.4,21.6c0.4,0.9,0.7,1.9,1.1,2.9
			c1.6,1.8,0.7,4.7-1.6,5.3c-1.9,0.5-3.9,0.8-5.9,1.1c-1.5,0.4-3,0.5-4.6,0.8c-0.5,0.1-1,0.1-1.4-0.2
			C223.5,254.6,221.4,255.2,219.3,255.5z"/>
		<path class="st7" d="M189.7,159.7c-1.8,0.2-3.7-0.1-5.5,0.3c-0.2-0.6-0.6-0.7-1.3-0.6c-1.4,0.2-2.8,0.3-4.2,0.4
			c-0.4,0.3-0.9-0.1-1.4,0.2c-0.8,0.1-1.6,0.2-2.4,0.2c0.4-4.5,0.8-9,1.2-13.6c1-0.7,1.8-1.5,2.5-2.6c0.5-0.8,0.5-1.4-0.4-2
			c-2.2-1.5-3.3-3.6-3.3-6.3c0-2.6,1.4-4,4-4.2c1.3-0.1,2.6,0.2,3.8,0.7c0.7,0.3,1,0.2,1.2-0.6c0.9-4.5,3.8-7.2,8-8.7
			c2.6-0.9,5.1-1.9,7.4-3.3c3.7,7.3,5,15.1,4.8,23.2c0,2.1-0.4,4.2-1.1,6.1c-1,2.6-2.5,3.4-5.3,3.3c-3.1-0.2-6.1-1.1-9-2.2
			c-0.4-0.2-0.8-0.5-1.5-0.4C188,153.1,188.8,156.4,189.7,159.7z"/>
		<path class="st3" d="M349.5,44.9c0,2.1-0.9,3.6-2.4,4.9c-4.8,4.2-9.6,8.3-14.4,12.5c-6,5.2-12.1,10.5-18.1,15.8
			c-1.9,1.6-3.8,2.7-6.4,2c-2.3-0.6-3.8-2.1-4.4-4.4c-0.6-2.4,0.2-4.5,2-6.1c2.4-2.1,4.8-4.2,7.2-6.3c8.7-7.6,17.4-15.2,26.2-22.7
			c2-1.7,4.2-2.3,6.7-1.1C348.2,40.6,349.4,42.4,349.5,44.9z"/>
		<path class="st8" d="M69,299.1c0.1-1.6,1.2-3.4,3.3-4.5c2.2-1.2,4.4-0.9,6.4,0.7c1.9,1.5,3.6,3.2,5.3,4.8
			c9.2,8.5,18.3,17.1,27.5,25.7c2.3,2.2,2.9,4.9,1.6,7.5c-1.2,2.5-3.8,3.7-6.7,3.2c-1.1-0.2-2.1-0.8-2.9-1.6
			c-10.8-10.1-21.7-20.2-32.5-30.3C69.7,303.4,68.9,301.8,69,299.1z"/>
		<path class="st3" d="M347.2,67.4c0-2.1,1-3.6,2.5-4.9c3.6-3.1,7.2-6.2,10.8-9.4c7.3-6.4,14.6-12.7,21.9-19.1
			c3-2.6,6.5-2.6,8.9-0.1c2.4,2.5,2.2,6.3-0.5,8.8c-3.1,2.8-6.3,5.5-9.4,8.2c-7.9,6.8-15.8,13.6-23.6,20.5c-3.3,2.9-6.7,2.3-9,0
			C347.8,70.4,347.2,69,347.2,67.4z"/>
		<path class="st3" d="M331.1,81.8c2.6,0,4.4,1.3,5.5,3.6c1.1,2.4,0.7,4.8-1.2,6.6c-2.3,2.3-4.8,4.3-7.3,6.5
			c-8.5,7.3-16.9,14.7-25.4,22c-0.6,0.5-1.1,1-1.7,1.5c-2.6,2-6.2,1.6-8.3-0.8c-2.1-2.4-2-5.9,0.4-8.2c2.5-2.4,5.2-4.6,7.8-6.9
			c8.6-7.5,17.2-14.9,25.8-22.4C327.9,82.5,329.4,81.7,331.1,81.8z"/>
		<path class="st8" d="M125,371.4c0.3,4.1-1,6.5-4.2,7.5c-1,0.3-2,0.1-3,0.1c-1.3-0.4-2.4-1.1-3.4-2c-7.3-6.8-14.5-13.6-21.8-20.3
			c-0.3-0.3-0.7-0.6-1-0.9c-3.1-3-6.3-5.9-9.4-8.9c-2.1-2-2.5-5.5-0.8-7.8c1.8-2.5,5.2-3.4,7.8-1.9c0.7,0.4,1.4,1,2,1.6
			c4.7,4.4,9.4,8.7,14,13.1c0.6,0.6,1.3,1.2,2,1.8c0.5,0,0.9,0.3,1.3,0.6c4.1,3.9,8.3,7.7,12.4,11.6c1,1,2.1,1.7,3,2.8
			C124.6,369.5,125.2,370.3,125,371.4z"/>
		<path class="st8" d="M142.1,353c3.9,3.7,7.7,7.3,11.6,11c4.4,4.1,8.9,8.2,13.2,12.4c2.7,2.5,2.8,6.2,0.5,8.7
			c-2.4,2.5-6.1,2.5-8.8,0c-7.9-7.4-15.9-14.8-23.8-22.2c-0.4-0.3-0.8-0.6-1.1-0.9c-0.5,0.1-0.8-0.2-1.2-0.5
			c-2.2-2.2-4.7-4.2-6.9-6.6c-0.5-0.6-1.3-1.1-1-2.1c-1.7-4.5,2-8.7,6.1-8.3c1.7,0.2,3,1,4.2,2.1c1.9,1.7,3.8,3.5,5.7,5.2
			C141.2,352,142,352.1,142.1,353z"/>
		<path class="st7" d="M146.3,306.3c4.1-0.7,8.2-1.5,12.3-2.2c-0.9,3.2-1,6.3,0.4,9.5c1.4,3.1,3.3,5.9,5.3,8.6
			c0.8,1.2,0.8,1.5-0.7,1.8c-1.1,0.3-2.1,0.1-3.1-0.5c-0.7-0.5-1.4-1-2-1.5c-2.5-1.9-4.4-1.9-6.9-0.1c-2.1,1.5-4.1,3.3-6.2,4.9
			c-2,1.6-4,3.1-6.6,3.6c-2.4,0.5-4.7,0.1-6.9-0.9c-1.3-0.5-1.7-2.2-1-3.5c0.4-0.8,1.1-1.4,1.7-2c4.4-4.4,8.5-9.1,12.1-14.1
			C145.5,308.7,146.4,307.7,146.3,306.3z"/>
		<path class="st9" d="M166.1,283.8c0.8-3.6,1.5-7.3,2.3-10.9c1.3-6.7,2.7-13.5,3.6-20.3c0-0.1,0.1-0.2,0.3-0.5
			c3.3,10.1,6.6,20,13.3,28.2c-2.9,0.7-5.8,1.1-8.7,1.6c-2.8,0.5-5.6,1-8.4,1.5C167.7,283.6,166.9,283.7,166.1,283.8z"/>
		<path class="st10" d="M124.7,352.7c1.2,2.4,3.5,3.9,5.3,5.7c1.2,1.2,2.5,2.4,3.7,3.6c-2.9,3.1-5.8,6.3-8.7,9.4
			c-0.6-1.6-1.8-2.8-3-4c-4.9-4.6-9.8-9.1-14.7-13.7c3.2-0.5,6.5-0.6,9.8-0.7C119.6,352.8,122.1,352.8,124.7,352.7z"/>
		<path class="st11" d="M142.1,353c-0.6-0.3-1-0.8-1.5-1.3c0.8-0.1,1.6-0.1,2.4-0.2C143.1,352.3,142.4,352.6,142.1,353z"/>
		<path class="st12" d="M457,235.1c0,0.5,0,1,0,1.5c0,70.2,0,140.4,0,210.6c0,0.5,0,1,0,1.5c-24.6-8.9-44-24.4-58.1-46.5
			c-7.6-12-12.7-25-15.4-38.9c-1.8-9-2.4-18.1-1.9-27.2c1.5-25.7,10.5-48.6,27.4-68.2c12.9-15,28.7-25.8,47.3-32.6
			C456.4,235.3,456.7,235.2,457,235.1z"/>
		<path class="st13" d="M225.6,254.5c2-0.5,3.9-0.9,5.9-1.1c0.8,0.4,0.8,1.2,1,2c1.9,8.5,3.7,17.1,5.6,25.6c1.7,8,3.5,15.9,5.2,23.9
			c0.2,0.8,0.3,1.6,0.1,2.5c0.3,2.9,1.1,5.7,1.7,8.6c4.4,20.4,8.8,40.8,13.3,61.2c4.3,19.9,8.7,39.8,13,59.7
			c0.3,1.6,0.3,1.7-1.3,1.8c-0.5,0-1.1-0.1-1.6,0.3c-0.3,0.3-0.7,0.5-1.2,0.6c-3.3,0.5-6.6,0.8-9.9,1.1c-0.5,0-1.1,0.1-1.5-0.3
			c-3.1,0.1-6.1,0.6-9.1,0.9c-5.3,0.5-10.6,1.2-15.9,1.7c-4.5,0.5-9,0.9-13.5,1.4c-0.9,0.1-1.1-0.2-1.2-0.9
			c-2.9-16.3-5.9-32.6-8.8-48.9c-1.7-9.7-3.5-19.3-5.3-29c-0.1-0.4-0.1-0.9-0.1-1.3c0.3-0.9,0.9-1.6,1.5-2.3
			c5.4-7.2,8.5-15.4,10.5-24.1c2-8.5,3.6-17.1,4.8-25.7c1-6.9,2-13.7,2.9-20.6c0.6-5,1.1-10,1.7-15c0.6-5.6,1.2-11.2,1.8-16.7
			C225.5,257.9,225.5,256.2,225.6,254.5z"/>
		<path class="st8" d="M361.3,414.1c19.1,0,34.6,15.5,34.6,34.6c0,19-15.5,34.5-34.5,34.5c-19.1,0-34.6-15.5-34.6-34.6
			C326.8,429.6,342.3,414.1,361.3,414.1z"/>
		<path class="st14" d="M243.4,307.4c-1.1-3.7-1.8-7.6-2.6-11.4c-3.1-14.2-6.2-28.4-9.3-42.6c1.7-0.3,3.4-0.7,5.1-1
			c2.3-0.5,2.9-1.2,2.6-3.6c0-0.4-0.1-0.9-0.2-1.3c2.7,1,5.3,2.1,8,3.1c6.8,2.4,13.9,3.6,21.1,4.1c0.3,0,0.5,0,0.9,0.1
			c-0.9,2.6-1.8,5.2-2.6,7.8c-1.9,6-3.5,12-6,17.8C256.2,290.3,250.6,299.3,243.4,307.4z"/>
		<path class="st15" d="M270.5,446.9c0.1-0.1,0.2-0.2,0.2-0.3c1-2.9,1.2-2.4,3.6-1.3c6.8,3,13.5,6,20.3,9.1c2.3,1.1,4.8,1.1,7.3,1.4
			c3.7,0.5,5.2,3.4,3.5,6.7c-0.3,0.6-0.8,0.4-1.3,0.4c-4.3,0-8.6,0-12.9,0c-11.6,0-23.3,0-34.9,0c-1.1,0-1.5-0.3-1.7-1.4
			c-0.6-3.6-0.9-7.1,0.6-10.6c0.9-2.2,1.3-2.5,3.5-1.8c0.6-0.2,1.2,0,1.8,0.2c2.9,1.1,5.6,0.4,8.2-0.8
			C269.5,448.1,269.7,447.2,270.5,446.9z"/>
		<path class="st15" d="M107.8,411.2c0.7,0.3,0.9,0.9,1.1,1.6c2.1,7.3,4.2,14.7,6.3,22c0.3,1.1,0.7,2.2,1.4,3.1
			c0.8,1.2,1.5,2.4,2.3,3.6c2.1,3.2,0.9,6-2.8,7c-0.6,0.2-0.8-0.2-1-0.5c-7.1-8.4-14.1-16.8-21.2-25.2c-3.3-3.9-6.6-7.9-9.9-11.8
			c-0.6-0.7-0.5-1.1,0-1.8c2.5-2.9,5.2-5.5,9-6.7c2-0.6,2.5-0.5,3.3,1.4c0.6,0.3,0.8,0.9,0.9,1.4c0.8,2.6,2.6,4.3,4.9,5.7
			c1.2,0.7,2.3,0.9,3.5,0.4C106.2,411.1,107,411,107.8,411.2z"/>
		<path class="st7" d="M295.9,261.9c-0.9-0.2-1.7-0.6-2.6-1.1c-3.9-2.3-7.3-5.2-10.8-7.9c-0.2-0.1-0.4-0.3-0.5-0.4
			c-0.4-0.4-1.4-0.1-1.4-0.9c0-0.5,0.5-1.1,0.8-1.6c1-1.8,2-3.6,3-5.4c0.2-0.4,0.4-0.9,1-0.5c2.3,1.4,4.9,1.1,7.4,1.5
			c4.8,0.8,9.6,1.7,14.2,3.4c0,0,0.1,0,0.1,0c1,0.4,2.1,0.9,2,2c-0.1,1.1-1.3,1.2-2.2,1.3c-2.8,0.5-5.5,0.7-8.3,1.3
			c-0.2,0-0.4,0.1-0.6,0.2c-3.1,0.8-3.5,1.8-1.7,4.4c0.5,0.7,1,1.5,1,2.4C297.1,261.4,296.9,262,295.9,261.9z"/>
		<path class="st7" d="M107.8,411.2c-0.3,0.1-0.7,0.2-1,0.2c-1.3,0.2-2.4,1.3-3.8,0.6c-2.4-1.2-4.8-2.5-5.9-5.2
			c-0.4-0.9-0.7-1.9-1-2.9c3.7-3,7.5-5.9,11.2-8.9c0.4-0.3,0.8-0.6,1.2-0.9c3,3.6,6.1,7.1,9.1,10.7c-3.1,1.8-6.2,3.6-9.2,5.4
			C108.1,410.6,107.3,410.5,107.8,411.2z"/>
		<path class="st16" d="M270.5,446.9c-0.2,1.3-1,1.9-2.2,2.4c-3.3,1.3-6.4,1.6-9.6-0.3c-0.9-2.9-1.8-5.9-2.7-8.8
			c3-0.4,6.1-0.7,9.1-1.1c1.1-0.1,2.3-0.2,3.4-0.3C269.2,441.5,269.6,444.3,270.5,446.9z"/>
		<path class="st17" d="M177.3,160c0.4-0.4,0.9-0.2,1.4-0.2C178.3,160.1,177.8,160,177.3,160z"/>
	</g>
</g>
</svg>
