<?xml version="1.0" encoding="utf-8"?>
<!-- Generator: Adobe Illustrator 23.0.1, SVG Export Plug-In . SVG Version: 6.00 Build 0)  -->
<svg version="1.1" id="Layer_1" xmlns="http://www.w3.org/2000/svg" xmlns:xlink="http://www.w3.org/1999/xlink" x="0px" y="0px"
	 viewBox="0 0 612 792" style="enable-background:new 0 0 612 792;" xml:space="preserve">
<style type="text/css">
	.st0{fill:#FFFFFF;}
	.st1{fill:none;}
	.st2{fill:#F1AD3E;}
	.st3{fill:#05443B;}
	.st4{fill:#F58767;}
</style>
<g>
	<path class="st0" d="M114,60.3c5.6,0.6,10.4-0.9,13.9-5.6c0.9-1.3,1.8-2.6,1.9-4.2c0.1-2,0-4,0-6c0-0.5-0.2-0.6-0.6-0.6
		c-2.2,0-4.5,0-6.7,0c-2.2,0-4.4,0-6.6,0c-0.7,0-0.8,0.2-0.8,0.8c0,1.1,0,2.3,0,3.4c0,0.6,0.1,0.8,0.8,0.8c2.4,0,4.9,0,7.3,0
		c0.7,0,0.7,0.2,0.5,0.8c-0.6,1.5-1.6,2.8-3.1,3.6c-1.7,1-3.6,1.1-5.5,0.8c-3-0.5-5.1-2.2-6-5.2c-0.5-1.6-0.5-3.2-0.3-4.8
		c0.3-3.7,2.8-6.3,6.4-6.7c2.7-0.3,5,0.5,6.5,3c0.2,0.4,0.5,0.4,0.9,0.4c2,0,3.9,0,5.9,0c0.7,0,0.9-0.2,0.7-0.9
		c-1-3.5-3.1-6.1-6.5-7.6c-3.2-1.5-6.6-1.6-10.1-1c-4.3,0.8-7.5,3.2-9.5,7.1c-1.7,3.5-2,7.2-1.2,11c0.6,3.1,2.1,5.8,4.6,7.9
		C108.9,59.1,111.3,60,114,60.3z"/>
	<path class="st0" d="M201.6,41.2c-2.9-4.3-9.1-5.5-13-2.4c-0.8,0.6-1.4,1.5-2,2.6c0-1.3,0-2.3,0-3.3c0-0.5-0.1-0.7-0.7-0.7
		c-1.9,0-3.8,0-5.7,0c-0.5,0-0.7,0.1-0.7,0.6c0,10.8,0,21.7,0,32.5c0,0.6,0.2,0.6,0.7,0.6c1.4,0,2.9,0,4.3,0c0.6,0,1.5,0.2,1.9-0.1
		c0.4-0.4,0.1-1.3,0.1-1.9c0-4.2,0-8.4,0-12.9c0.4,0.6,0.6,1.1,1,1.4c0.3,0.4,0.7,0.8,1.1,1.1c3.7,2.9,9.4,2.1,12.4-1.6
		C204.4,53.1,204.5,45.5,201.6,41.2z M196.5,48.9c0,2-0.5,3.8-2.4,4.9c-2.6,1.5-6.5,0.6-7.4-3.1c-0.5-2.3-0.4-4.5,1.5-6.2
		c1.6-1.4,3.4-1.5,5.3-0.8c1.9,0.7,2.7,2.3,2.9,4.2C196.5,48.2,196.5,48.5,196.5,48.9z"/>
	<path class="st0" d="M229.6,60.3c0.7,0,0.8-0.2,0.8-0.8c0-4,0-8,0-12.1c0-1,0-2-0.2-2.9c-0.5-2.7-1.7-5-4.3-6.4
		c-3.1-1.6-8.9-1.4-11.6,3.4c0-0.5,0-0.7,0-1c0-3.3,0-6.5,0-9.8c0-0.6-0.2-0.7-0.8-0.7c-1.9,0-3.7,0-5.6,0c-0.5,0-0.7,0.1-0.7,0.6
		c0,9.7,0,19.4,0,29.1c0,0.5,0.2,0.6,0.6,0.6c1.8,0,3.7,0,5.5,0c0.7,0,0.9-0.1,0.9-0.9c0-3.6,0-7.2,0-10.9c0-0.8,0-1.6,0.2-2.4
		c0.5-1.7,1.5-2.9,3.4-3.2c1.9-0.3,3.6,0.1,4.7,1.8c0.7,1.1,0.7,2.3,0.8,3.5c0,3.7,0,7.4,0,11.1c0,0.7,0.2,0.8,0.8,0.8
		C226.1,60.2,227.8,60.2,229.6,60.3z"/>
	<path class="st0" d="M173.9,37.4c-1.8,0-3.7,0-5.5,0c-0.5,0-0.7,0.1-0.7,0.7c0,1.1,0,2.1,0,3.3c-1.4-2.1-2-2.7-3.1-3.3
		c-4.2-2.3-9.8-0.7-12.3,3.4c-1.8,3-2.1,6.3-1.7,9.7c0.3,2.7,1.4,5,3.4,6.9c3,2.9,8.3,3.2,11.5,0.7c0.9-0.7,1.5-1.6,2.1-2.7
		c0,1.3,0,2.4,0,3.5c0,0.4,0.1,0.5,0.5,0.5c1.9,0,3.9,0,5.8,0c0.5,0,0.6-0.2,0.6-0.6c0-0.8,0-1.6,0-2.5c0-6.3,0-12.7,0-19
		C174.7,37.5,174.5,37.4,173.9,37.4z M166.2,53c-1.5,1.6-3.5,1.8-5.5,1c-2-0.7-2.8-2.4-3-4.3c0-0.3,0-0.6,0-0.9c0-2,0.5-3.8,2.3-4.9
		c2.5-1.5,6.7-0.7,7.5,3.2C168,49.3,167.8,51.3,166.2,53z"/>
	<path class="st0" d="M284,60.3c0.5,0,0.6-0.2,0.6-0.6c0-1.4,0-2.8,0-4.2c0-5.7,0-11.4,0-17.2c0-0.7-0.2-0.9-0.9-0.9
		c-1.8,0-3.5,0-5.3,0c-0.6,0-0.9,0.1-0.8,0.8c0.1,1,0,2.1,0,3.1c-0.8-1.3-1.7-2.3-3-3.1c-4.6-2.7-10.8-0.5-13,4.6
		c-1.1,2.5-1.4,5.2-1.1,7.9c0.3,3.3,1.6,6.3,4.5,8.3c3.2,2.2,8.5,2.3,11.3-0.8c0.5-0.5,0.9-1.2,1.3-2c0,1.3,0,2.4,0,3.5
		c0,0.4,0,0.7,0.6,0.6C280.2,60.2,282.1,60.2,284,60.3z M275.3,53.7c-3.4,2-7.4-0.1-7.6-4.1c0-0.3,0-0.5,0-0.8c0-2.1,0.6-3.9,2.6-5
		c2.8-1.4,6.7-0.2,7.4,3.7C278,50.1,277.1,52.6,275.3,53.7z"/>
	<path class="st0" d="M247.7,60.3c0.4,0,0.3-0.2,0.3-0.5c0-1.7,0-3.4,0-5c0-0.4-0.2-0.5-0.6-0.5c-0.6,0-1.2,0-1.8,0
		c-1.6,0-2.2-0.5-2.3-2.1c-0.1-1.4,0-2.8,0-4.2c0,0,0,0,0,0c0-1.3,0-2.7,0-4c0-0.5,0.1-0.7,0.7-0.7c1.1,0,2.2,0,3.4,0
		c0.4,0,0.6-0.1,0.6-0.6c0-1.6,0-3.2,0-4.8c0-0.5-0.2-0.6-0.6-0.6c-1.1,0-2.1,0-3.2,0c-0.7,0-0.8-0.2-0.8-0.9c0-1.4,0-2.7,0-4.1
		c0-0.5-0.1-0.7-0.7-0.7c-1.9,0-3.8,0-5.7,0c-0.5,0-0.6,0.1-0.6,0.6c0,1.5,0,2.9,0,4.4c0,0.5-0.1,0.7-0.6,0.6c-0.7,0-1.3,0-2,0
		c-0.4,0-0.5,0.1-0.5,0.5c0,1,0,2,0,3c0,0.8-0.3,1.7,0.2,2.2c0.5,0.4,1.4,0.1,2.2,0.1c0.6,0,0.8,0.2,0.8,0.8c0,2.9,0,5.9,0,8.8
		c0.1,3.6,1.7,5.8,4.8,6.9C243.4,60.4,245.5,60.2,247.7,60.3z"/>
	<path class="st0" d="M148.2,44.6c0.5,0,0.6-0.1,0.6-0.6c0-2.1,0-4.3,0-6.4c0-0.4-0.1-0.5-0.5-0.5c-3.1,0.2-5.4,1.8-7.3,4.5
		c0-1.4,0-2.5,0-3.7c0-0.5-0.1-0.6-0.6-0.6c-1.9,0-3.9,0-5.8,0c-0.5,0-0.6,0.1-0.6,0.6c0,7.2,0,14.4,0,21.6c0,0.6,0.2,0.6,0.7,0.6
		c1.8,0,3.7-0.1,5.5,0c0.7,0,0.9-0.2,0.9-0.9c0-3.4,0-6.8,0-10.2c0-2.4,1.2-3.7,3.5-4.3C145.7,44.6,146.9,44.6,148.2,44.6z"/>
	<path class="st0" d="M290.1,60.3c1.9,0,3.8,0,5.7,0c0.5,0,0.7-0.1,0.7-0.7c0-7.2,0-14.4,0-21.6c0-0.5-0.1-0.7-0.7-0.7
		c-1.9,0-3.8,0-5.7,0c-0.6,0-0.7,0.1-0.7,0.7c0,3.6,0,7.1,0,10.7c0,3.6,0,7.2,0,10.9C289.5,60.1,289.6,60.3,290.1,60.3z"/>
	<path class="st0" d="M250.8,59.8c0,0.4,0.1,0.5,0.5,0.5c2.1,0,4.2,0,6.3,0c0.4,0,0.5-0.2,0.5-0.5c0-2,0-4,0-6
		c0-0.4-0.1-0.6-0.5-0.5c-1,0-2,0-3,0c-1.1,0-2.1,0-3.2,0c-0.4,0-0.5,0.1-0.5,0.5C250.8,55.7,250.8,57.7,250.8,59.8z"/>
	<path class="st0" d="M293,34.5c0.2,0,0.4,0,0.6,0c1.8-0.1,3.3-1.4,3.6-3.2c0.2-1.8-0.9-3.4-2.7-3.9c-1.1-0.3-2.2-0.3-3.2,0.1
		c-2.1,0.7-3,3.1-2,5C290,34,291.4,34.6,293,34.5z"/>
	<g>
		<path class="st1" d="M81.2,50.8c-2.5-1.7-5.6-1-7.5,1.8c-1.1,1.7-2.6,1.7-3.7,0c-0.8-1.2-1.9-2-3.2-2.4c-2.7-0.9-5.7,0.7-6.2,3.5
			c-0.6,3.2,0.3,6,2.6,8.3c2.6,2.6,5.6,4.9,8.3,7.5c0.3,0.3,0.5,0.2,0.7,0c2.5-2.2,5-4.4,7.4-6.6c2.2-2,3.7-4.4,3.6-7.1
			C83.3,53.5,82.8,51.9,81.2,50.8z"/>
		<path class="st2" d="M61.5,68.2c-3.4,2.7-7.3,3.9-11.6,4c-4.3-0.1-8.2-1.3-11.2-4.5c-1.7-1.8-2.7-4.1-3.4-6.4
			c-1.4-4.7-2.7-9.5-4.1-14.2c-0.3-1.1-0.1-1.6,0.8-2c1-0.5,1.7-0.3,2.3,0.4c1.5,1.9,2.3,4.1,3.4,6.1c0.5,1,0.9,2,1.4,2.9
			c0.4,0.9,1.2,1.4,2.2,1.4c3.7,0,6.7,2.7,7.5,6.1c0.1,0.5,0.2,1.1,0.6,1.5c0.6,0.6,1.2,0.8,1.9,0.4c0.7-0.3,1.2-1,1-1.7
			c-0.8-4.3-3.1-7.3-7.1-9c-0.9-0.4-1.8-0.6-2.8-0.7c-0.4,0-0.7-0.2-0.8-0.5c-1.1-2.4-2.3-4.7-3.4-7c-1-2.2-1.2-4.6-1.6-6.9
			c-0.4-2.1-0.7-4.2-1.1-6.3c-0.1-0.3-0.1-0.6-0.1-1c0.1-1,0.7-1.7,1.5-1.8c0.9-0.1,1.8,0.4,2.1,1.3c0.4,1.2,0.5,2.5,0.8,3.8
			c0.8,4.4,1.6,8.8,2.4,13.3c0.2,1.2,1,1.9,2,1.7c1-0.2,1.6-1.1,1.4-2.3c-0.5-3.1-1.1-6.2-1.6-9.3c-0.7-3.7-1.3-7.4-2-11.1
			C42,25.1,42.8,24,44,23.8c1.2-0.2,2.2,0.6,2.5,1.9c1.2,6.7,2.4,13.3,3.5,20c0.3,1.5,0.7,2.1,1.7,2.1c1.2,0.1,1.9-0.6,1.8-1.9
			c-0.2-1.5-0.5-2.9-0.7-4.4c-0.7-4.2-1.5-8.4-2.2-12.6c-0.2-1.2,0.4-2.3,1.5-2.5c1.1-0.2,2,0.4,2.3,1.7c0.6,2.8,1,5.7,1.6,8.5
			c0.5,2.7,1,5.5,1.5,8.2c0.2,1.1,1.1,1.8,2,1.6c1.1-0.2,1.6-1,1.4-2.2c-0.6-3.6-1.2-7.3-1.9-10.9c-0.1-0.5-0.2-1.1-0.1-1.6
			c0.1-0.8,0.7-1.3,1.5-1.3c0.8-0.1,1.2,0.3,1.5,1c0.6,1.9,0.8,3.9,1.2,5.9c0.5,2.6,0.9,5.2,1.4,7.8c0.1,0.3,0.1,0.5-0.1,0.6l4,0.5
			c-0.3-0.3-0.4-0.6-0.5-1.1c-0.8-4.6-1.6-9.3-2.4-13.9c-0.6-3.3-3.3-5.3-6.8-4c-0.6,0.2-0.7,0-0.9-0.5c-0.9-3.1-4.3-4.8-7.2-3.6
			c-0.7,0.3-1,0.3-1.4-0.4c-1.3-2-3.1-3.1-5.5-2.6c-2.7,0.5-4.2,2.1-4.7,4.9c-0.1,0.4-0.2,0.5-0.6,0.4c-1.1-0.2-2.1,0-3,0.5
			c-2.4,1.2-3.3,3.4-2.8,6.3c0.5,2.7,0.9,5.5,1.4,8.2c0.1,0.5,0,0.6-0.5,0.6c-0.9,0-1.8,0.2-2.6,0.5c-2.3,1-3.6,3.2-3,5.3
			c1.7,5.8,3.3,11.5,5.1,17.2c1.4,4.3,4.3,7.3,8.4,9.3c3.6,1.7,7.3,2.3,11.3,1.8c5-0.6,9.5-2.4,13.1-6.2L62.6,67
			C62.6,67.3,62.3,67.6,61.5,68.2z"/>
		<path class="st3" d="M61.5,68.2c0.7-0.6,1.1-0.9,1.1-1.2l0,0C62.6,67.3,62.3,67.6,61.5,68.2z"/>
		<polygon class="st3" points="64.3,46 68.3,46.5 68.3,46.5 64.3,46 		"/>
		<path class="st4" d="M87.1,54c-0.5-5.2-5.1-8.5-9.8-7.9c-1.9,0.2-3.6,1-5,2.3c-0.3,0.3-0.5,0.3-0.8,0c-0.8-0.7-1.6-1.3-2.6-1.6
			c-0.2-0.1-0.4-0.2-0.6-0.3l-4-0.5c-0.1,0.1-0.3,0.2-0.5,0.2c-4,0.6-7.1,4.3-7.2,8.5c-0.1,4.5,1.7,8.1,5.1,11.1c0,0,0,0,0.1,0
			c0.6,0.6,1,0.9,1,1.2l2.8,2.2c0,0,0,0,0,0c1.6,1.5,3.3,3,4.9,4.4c1,0.9,1.9,0.9,2.8,0c2.9-2.6,5.8-5.2,8.7-7.7
			C85.5,62.8,87.5,58.9,87.1,54z M83.3,55.7c0.1,2.7-1.4,5.1-3.6,7.1c-2.5,2.2-5,4.4-7.4,6.6c-0.2,0.2-0.4,0.3-0.7,0
			c-2.7-2.5-5.7-4.8-8.3-7.5c-2.3-2.3-3.2-5.1-2.6-8.3c0.5-2.8,3.5-4.5,6.2-3.5c1.3,0.5,2.4,1.2,3.2,2.4c1.1,1.7,2.5,1.6,3.7,0
			c1.9-2.8,5-3.5,7.5-1.8C82.8,51.9,83.3,53.5,83.3,55.7z"/>
		<path class="st3" d="M62.6,67L62.6,67c0-0.3-0.3-0.6-1-1.2C62.3,66.4,62.6,66.7,62.6,67z"/>
	</g>
</g>
</svg>
